<?xml version="1.0" encoding="UTF-8"?>
<svg width="48" height="38" version="1.1" viewBox="0 0 12.7 10.054" xmlns="http://www.w3.org/2000/svg" xmlns:cc="http://creativecommons.org/ns#" xmlns:dc="http://purl.org/dc/elements/1.1/" xmlns:rdf="http://www.w3.org/1999/02/22-rdf-syntax-ns#">
<defs>
<filter id="a" color-interpolation-filters="sRGB">
<feColorMatrix result="fbSourceGraphic" values="2 -0.5 -0.5 0 0 -0.5 2 -0.5 0 0 -0.5 -0.5 2 0 0 0 0 0 1 0 "/>
<feColorMatrix in="fbSourceGraphic" result="fbSourceGraphicAlpha" values="0 0 0 -1 0 0 0 0 -1 0 0 0 0 -1 0 0 0 0 1 0"/>
<feColorMatrix in="fbSourceGraphic" values="2 -0.5 -0.5 0 0 -0.5 2 -0.5 0 0 -0.5 -0.5 2 0 0 0 0 0 1 0 "/>
</filter>
<filter id="b" color-interpolation-filters="sRGB">
<feColorMatrix result="fbSourceGraphic" values="2 -0.5 -0.5 0 0 -0.5 2 -0.5 0 0 -0.5 -0.5 2 0 0 0 0 0 1 0 "/>
<feColorMatrix in="fbSourceGraphic" result="fbSourceGraphicAlpha" values="0 0 0 -1 0 0 0 0 -1 0 0 0 0 -1 0 0 0 0 1 0"/>
<feColorMatrix in="fbSourceGraphic" values="2 -0.5 -0.5 0 0 -0.5 2 -0.5 0 0 -0.5 -0.5 2 0 0 0 0 0 1 0 "/>
</filter>
<filter id="c" color-interpolation-filters="sRGB">
<feColorMatrix result="fbSourceGraphic" values="2 -0.5 -0.5 0 0 -0.5 2 -0.5 0 0 -0.5 -0.5 2 0 0 0 0 0 1 0 "/>
<feColorMatrix in="fbSourceGraphic" result="fbSourceGraphicAlpha" values="0 0 0 -1 0 0 0 0 -1 0 0 0 0 -1 0 0 0 0 1 0"/>
<feColorMatrix in="fbSourceGraphic" values="2 -0.5 -0.5 0 0 -0.5 2 -0.5 0 0 -0.5 -0.5 2 0 0 0 0 0 1 0 "/>
</filter>
</defs>
<metadata>
<rdf:RDF>
<cc:Work rdf:about="">
<dc:format>image/svg+xml</dc:format>
<dc:type rdf:resource="http://purl.org/dc/dcmitype/StillImage"/>
<dc:title/>
</cc:Work>
</rdf:RDF>
</metadata>
<g transform="translate(-22.681 -38.073)">
<g transform="translate(6.5994 2.9561)">
<rect x="16.082" y="35.203" width="12.348" height="8.0475" ry=".19582" fill="#ccc" stroke="#e6e6e6" stroke-linecap="round" stroke-linejoin="round" stroke-width=".35277" style="paint-order:normal"/>
<path d="m20.316 35.203h3.8128c0.02165 0 0.02888 0.01452 0.03908 0.02721l0.48652 0.60543c0.01022 0.0127-0.01743 0.02721-0.03908 0.02721h-4.7183c-0.02165 0-0.04822-0.01401-0.03908-0.02721l0.41895-0.60543c0.0092-0.0132 0.01743-0.02721 0.03908-0.02721z" fill="#808080"/>
<g transform="matrix(1.0425 0 0 1.0425 6.4502 7.3181)">
<rect x="9.8397" y="27.271" width="10.682" height="6.6104" ry=".16085" fill="#808080" stroke="#e6e6e6" stroke-linecap="round" stroke-linejoin="round" stroke-width=".29737" style="paint-order:normal"/>
<rect x="10.625" y="31.992" width="2.3348" height="1.2478" ry=".068975" fill="#737373" stroke="#737373" stroke-linecap="round" stroke-width=".025867" style="paint-order:normal"/>
<rect x="17.364" y="31.992" width="2.3348" height="1.2478" ry=".068975" fill="#737373" stroke="#737373" stroke-linecap="round" stroke-width=".025867" style="paint-order:normal"/>
<rect x="10.647" y="27.708" width="9.0303" height="2.3501" ry=".12991" fill="#737373" stroke="#737373" stroke-linecap="round" stroke-width=".069815" style="paint-order:normal"/>
<g transform="matrix(1.1386 0 0 1.0579 8.6357 17.891)" fill="#e6e0b2">
<path transform="matrix(.084281 0 0 .040665 -3.6314 6.3703)" d="m80.556 75.747h3.9062v22.786h-3.9062z" filter="url(#a)"/>
<path transform="matrix(.084281 0 0 .040665 -4.9689 6.3703)" d="m153.6 75.747h3.9062v22.786h-3.9062z" filter="url(#a)"/>
<path transform="matrix(.084281 0 0 .040665 -4.5868 6.3703)" d="m132.73 75.747h3.9062v22.786h-3.9062z" filter="url(#a)"/>
<path transform="matrix(.084281 0 0 .040665 -4.3961 6.3703)" d="m122.3 75.747h3.9062v22.786h-3.9062z" filter="url(#a)"/>
<path transform="matrix(.084281 0 0 .040665 -4.2046 6.3703)" d="m111.86 75.747h3.9062v22.786h-3.9062z" filter="url(#a)"/>
<path transform="matrix(.084281 0 0 .040665 -4.0139 6.3703)" d="m101.43 75.747h3.9062v22.786h-3.9062z" filter="url(#a)"/>
<path transform="matrix(.084281 0 0 .040665 -3.8225 6.3703)" d="m90.991 75.747h3.9062v22.786h-3.9062z" filter="url(#a)"/>
<path transform="matrix(.084281 0 0 .040665 -4.7783 6.3703)" d="m143.17 75.747h3.9062v22.786h-3.9062z" filter="url(#a)"/>
<path transform="matrix(.084281 0 0 .040665 -4.2806 6.3703)" d="m153.6 75.747h3.9062v22.786h-3.9062z" filter="url(#b)"/>
<path transform="matrix(.084281 0 0 .040665 -10.476 6.3703)" d="m153.6 75.747h3.9062v22.786h-3.9062z" filter="url(#c)"/>
</g>
</g>
<path d="m20.849 35.117h2.7367c0.01742 0 0.02022 0.01954 0.03142 0.0348l0.56803 0.7742c0.01125 0.01533-0.01401 0.0348-0.03142 0.0348h-3.7947c-0.01742 0-0.03801-0.01689-0.03142-0.0348l0.48995-0.7742 0.03142-0.0348z" fill="#ccc"/>
</g>
<g transform="matrix(2.2734 0 0 2.2734 -63.947 -1.7621)" fill="#f00" style="font-variant-caps:normal;font-variant-ligatures:normal;font-variant-numeric:normal;shape-inside:url(#rect3828-6);white-space:pre" aria-label="✗">
<path d="m42.655 18.731q0.02067 0 0.05374 0.03307 0.03514 0.03307 0.07235 0.08682 0.05994-0.10542 0.09508-0.10542 0.03101 0 0.08475 0.05581 0.03307 0.03514 0.03307 0.07855 0 0.05581-0.04548 0.10335-0.42995 0.46715-0.83509 1.0273 0.16743 0.40928 0.46302 0.9033 0.02481 0.04134 0.02481 0.06615 0 0.04754-0.06201 0.09922l-0.06615 0.04547q0.0083 0.02481 0.0083 0.06615 0 0.06201-0.04548 0.09508-0.05374 0.03721-0.07855 0.03721-0.05374 0-0.09508-0.05374-0.24805-0.31833-0.51263-0.74827-0.35553 0.46302-0.81442 1.2361-0.06615 0.11162-0.22324 0.11162-0.07441 0-0.08268-0.08682-0.10542-0.05788-0.10542-0.18397 0-0.16536 0.02274-0.22944 0.01033-0.02894 0.06614-0.11576 0.42168-0.65732 0.89297-1.2072-0.25218-0.59945-0.33486-0.92397-0.0186-0.07235-0.0186-0.09302 0-0.02894 0.03721-0.08268 0.03927-0.05374 0.07235-0.05374 0.03101 0 0.07855 0.05995 0.0186-0.03514 0.04548-0.05995 0.03721-0.03307 0.09508-0.03307 0.06615 0 0.08682 0.06201 0.11162 0.34726 0.29352 0.66146 0.29352-0.38034 0.7152-0.80202 0.04961-0.04961 0.07855-0.04961z" fill="#f00"/>
</g>
</g>
</svg>
