<?xml version="1.0" encoding="UTF-8"?>
<svg width="48" height="38" version="1.1" viewBox="0 0 12.7 10.054" xmlns="http://www.w3.org/2000/svg" xmlns:cc="http://creativecommons.org/ns#" xmlns:dc="http://purl.org/dc/elements/1.1/" xmlns:rdf="http://www.w3.org/1999/02/22-rdf-syntax-ns#">
<defs>
<filter id="b" color-interpolation-filters="sRGB">
<feColorMatrix result="fbSourceGraphic" values="2 -0.5 -0.5 0 0 -0.5 2 -0.5 0 0 -0.5 -0.5 2 0 0 0 0 0 1 0 "/>
<feColorMatrix in="fbSourceGraphic" result="fbSourceGraphicAlpha" values="0 0 0 -1 0 0 0 0 -1 0 0 0 0 -1 0 0 0 0 1 0"/>
<feColorMatrix in="fbSourceGraphic" values="2 -0.5 -0.5 0 0 -0.5 2 -0.5 0 0 -0.5 -0.5 2 0 0 0 0 0 1 0 "/>
</filter>
<filter id="e" color-interpolation-filters="sRGB">
<feColorMatrix result="fbSourceGraphic" values="2 -0.5 -0.5 0 0 -0.5 2 -0.5 0 0 -0.5 -0.5 2 0 0 0 0 0 1 0 "/>
<feColorMatrix in="fbSourceGraphic" result="fbSourceGraphicAlpha" values="0 0 0 -1 0 0 0 0 -1 0 0 0 0 -1 0 0 0 0 1 0"/>
<feColorMatrix in="fbSourceGraphic" values="2 -0.5 -0.5 0 0 -0.5 2 -0.5 0 0 -0.5 -0.5 2 0 0 0 0 0 1 0 "/>
</filter>
<filter id="a" color-interpolation-filters="sRGB">
<feColorMatrix result="fbSourceGraphic" values="2 -0.5 -0.5 0 0 -0.5 2 -0.5 0 0 -0.5 -0.5 2 0 0 0 0 0 1 0 "/>
<feColorMatrix in="fbSourceGraphic" result="fbSourceGraphicAlpha" values="0 0 0 -1 0 0 0 0 -1 0 0 0 0 -1 0 0 0 0 1 0"/>
<feColorMatrix in="fbSourceGraphic" values="2 -0.5 -0.5 0 0 -0.5 2 -0.5 0 0 -0.5 -0.5 2 0 0 0 0 0 1 0 "/>
</filter>
<filter id="d" color-interpolation-filters="sRGB">
<feColorMatrix result="fbSourceGraphic" values="2 -0.5 -0.5 0 0 -0.5 2 -0.5 0 0 -0.5 -0.5 2 0 0 0 0 0 1 0 "/>
<feColorMatrix in="fbSourceGraphic" result="fbSourceGraphicAlpha" values="0 0 0 -1 0 0 0 0 -1 0 0 0 0 -1 0 0 0 0 1 0"/>
<feColorMatrix in="fbSourceGraphic" values="2 -0.5 -0.5 0 0 -0.5 2 -0.5 0 0 -0.5 -0.5 2 0 0 0 0 0 1 0 "/>
</filter>
<filter id="c" color-interpolation-filters="sRGB">
<feColorMatrix result="fbSourceGraphic" values="2 -0.5 -0.5 0 0 -0.5 2 -0.5 0 0 -0.5 -0.5 2 0 0 0 0 0 1 0 "/>
<feColorMatrix in="fbSourceGraphic" result="fbSourceGraphicAlpha" values="0 0 0 -1 0 0 0 0 -1 0 0 0 0 -1 0 0 0 0 1 0"/>
<feColorMatrix in="fbSourceGraphic" values="2 -0.5 -0.5 0 0 -0.5 2 -0.5 0 0 -0.5 -0.5 2 0 0 0 0 0 1 0 "/>
</filter>
</defs>
<metadata>
<rdf:RDF>
<cc:Work rdf:about="">
<dc:format>image/svg+xml</dc:format>
<dc:type rdf:resource="http://purl.org/dc/dcmitype/StillImage"/>
<dc:title/>
</cc:Work>
</rdf:RDF>
</metadata>
<g transform="translate(0 .081556)">
<rect x=".23201" y=".69137" width="12.236" height="8.5083" ry=".2835" fill="#e6e6e6" stroke="#e6e6e6" stroke-linecap="round" stroke-linejoin="round" stroke-width=".34762" style="paint-order:normal"/>
<path transform="matrix(.11105 0 0 .097 -6.8281 -5.9243)" d="m167.53 75.649 2.8e-4 56.831h-25.815v10.105h-46.456v-10.105h-25.472l-3.4e-4 -56.831c34.664-0.03081 67.47 0.08096 97.743 0z" fill="#4d4d4d" filter="url(#b)" stroke="#4d4d4d" stroke-linecap="square" stroke-width="2.5"/>
<rect x="2.1544" y="3.6359" width="8.3912" height="2.3096" ry=".032672" fill="#969696" stroke="#959595" stroke-linecap="round" stroke-width=".65396" style="paint-order:normal"/>
<path transform="matrix(.91472 0 0 .02993 -69.123 4.5477)" d="m80.556 75.747h3.9062v22.786h-3.9062z" fill="#e6e6e6" filter="url(#e)" stroke="#e6e6e6" stroke-linecap="square"/>
<rect x=".90785" y="7.6921" width="2.0554" height=".94296" ry=".073812" fill="#f00" stroke="#f00" stroke-linecap="round" stroke-width=".20681" style="paint-order:normal"/>
<g transform="matrix(.85418 0 0 .78314 1.417 .94606)" fill="#fff" stroke="#fff" stroke-linecap="square">
<path transform="matrix(.098669 0 0 .051926 -5.3729 1.1201)" d="m80.556 75.747h3.9062v22.786h-3.9062z" filter="url(#a)"/>
<path transform="matrix(.098669 0 0 .051926 -6.5662 1.1201)" d="m153.6 75.747h3.9062v22.786h-3.9062z" filter="url(#a)"/>
<path transform="matrix(.098669 0 0 .051926 -6.2252 1.1201)" d="m132.73 75.747h3.9062v22.786h-3.9062z" filter="url(#a)"/>
<path transform="matrix(.098669 0 0 .051926 -6.0552 1.1201)" d="m122.3 75.747h3.9062v22.786h-3.9062z" filter="url(#a)"/>
<path transform="matrix(.098669 0 0 .051926 -5.8843 1.1201)" d="m111.86 75.747h3.9062v22.786h-3.9062z" filter="url(#a)"/>
<path transform="matrix(.098669 0 0 .051926 -5.7143 1.1201)" d="m101.43 75.747h3.9062v22.786h-3.9062z" filter="url(#a)"/>
<path transform="matrix(.098669 0 0 .051926 -5.5434 1.1201)" d="m90.991 75.747h3.9062v22.786h-3.9062z" filter="url(#a)"/>
<path transform="matrix(.098669 0 0 .051926 -6.3962 1.1201)" d="m143.17 75.747h3.9062v22.786h-3.9062z" filter="url(#a)"/>
<path transform="matrix(.098669 0 0 .051926 -5.7071 1.1043)" d="m153.6 75.747h3.9062v22.786h-3.9062z" filter="url(#d)"/>
<path transform="matrix(.098669 0 0 .051926 -13.439 1.1201)" d="m153.6 75.747h3.9062v22.786h-3.9062z" filter="url(#c)"/>
</g>
</g>
</svg>
