<?xml version="1.0" encoding="UTF-8"?>
<svg width="48" height="38" version="1.1" viewBox="0 0 12.7 10.054" xmlns="http://www.w3.org/2000/svg" xmlns:cc="http://creativecommons.org/ns#" xmlns:dc="http://purl.org/dc/elements/1.1/" xmlns:rdf="http://www.w3.org/1999/02/22-rdf-syntax-ns#">
<defs>
<filter id="a" color-interpolation-filters="sRGB">
<feColorMatrix result="fbSourceGraphic" values="2 -0.5 -0.5 0 0 -0.5 2 -0.5 0 0 -0.5 -0.5 2 0 0 0 0 0 1 0 "/>
<feColorMatrix in="fbSourceGraphic" result="fbSourceGraphicAlpha" values="0 0 0 -1 0 0 0 0 -1 0 0 0 0 -1 0 0 0 0 1 0"/>
<feColorMatrix in="fbSourceGraphic" values="2 -0.5 -0.5 0 0 -0.5 2 -0.5 0 0 -0.5 -0.5 2 0 0 0 0 0 1 0 "/>
</filter>
<filter id="b" color-interpolation-filters="sRGB">
<feColorMatrix result="fbSourceGraphic" values="2 -0.5 -0.5 0 0 -0.5 2 -0.5 0 0 -0.5 -0.5 2 0 0 0 0 0 1 0 "/>
<feColorMatrix in="fbSourceGraphic" result="fbSourceGraphicAlpha" values="0 0 0 -1 0 0 0 0 -1 0 0 0 0 -1 0 0 0 0 1 0"/>
<feColorMatrix in="fbSourceGraphic" values="2 -0.5 -0.5 0 0 -0.5 2 -0.5 0 0 -0.5 -0.5 2 0 0 0 0 0 1 0 "/>
</filter>
<filter id="c" color-interpolation-filters="sRGB">
<feColorMatrix result="fbSourceGraphic" values="2 -0.5 -0.5 0 0 -0.5 2 -0.5 0 0 -0.5 -0.5 2 0 0 0 0 0 1 0 "/>
<feColorMatrix in="fbSourceGraphic" result="fbSourceGraphicAlpha" values="0 0 0 -1 0 0 0 0 -1 0 0 0 0 -1 0 0 0 0 1 0"/>
<feColorMatrix in="fbSourceGraphic" values="2 -0.5 -0.5 0 0 -0.5 2 -0.5 0 0 -0.5 -0.5 2 0 0 0 0 0 1 0 "/>
</filter>
</defs>
<metadata>
<rdf:RDF>
<cc:Work rdf:about="">
<dc:format>image/svg+xml</dc:format>
<dc:type rdf:resource="http://purl.org/dc/dcmitype/StillImage"/>
<dc:title/>
</cc:Work>
</rdf:RDF>
</metadata>
<g transform="translate(-22.681 -26.454)">
<rect x="22.681" y="26.539" width="12.348" height="8.0475" ry=".19582" fill="#ccc" stroke="#e6e6e6" stroke-linecap="round" stroke-linejoin="round" stroke-width=".35277" style="paint-order:normal"/>
<path d="m26.915 26.539h3.8128c0.02165 0 0.02888 0.01452 0.03908 0.02721l0.48652 0.60543c0.01022 0.0127-0.01743 0.02721-0.03908 0.02721h-4.7183c-0.02165 0-0.04822-0.01401-0.03908-0.02721l0.41895-0.60543c0.0092-0.0132 0.01743-0.02721 0.03908-0.02721z" fill="#808080"/>
<g transform="matrix(1.0425 0 0 1.0425 13.05 -1.3457)">
<rect x="9.8397" y="27.271" width="10.682" height="6.6104" ry=".16085" fill="#808080" stroke="#e6e6e6" stroke-linecap="round" stroke-linejoin="round" stroke-width=".29737" style="paint-order:normal"/>
<rect x="10.625" y="31.992" width="2.3348" height="1.2478" ry=".068975" fill="#737373" stroke="#737373" stroke-linecap="round" stroke-width=".025867" style="paint-order:normal"/>
<rect x="17.364" y="31.992" width="2.3348" height="1.2478" ry=".068975" fill="#737373" stroke="#737373" stroke-linecap="round" stroke-width=".025867" style="paint-order:normal"/>
<rect x="10.647" y="27.708" width="9.0303" height="2.3501" ry=".12991" fill="#737373" stroke="#737373" stroke-linecap="round" stroke-width=".069815" style="paint-order:normal"/>
<g transform="matrix(1.1386 0 0 1.0579 8.6357 17.891)" fill="#e6e0b2">
<path transform="matrix(.084281 0 0 .040665 -3.6314 6.3703)" d="m80.556 75.747h3.9062v22.786h-3.9062z" filter="url(#a)"/>
<path transform="matrix(.084281 0 0 .040665 -4.9689 6.3703)" d="m153.6 75.747h3.9062v22.786h-3.9062z" filter="url(#a)"/>
<path transform="matrix(.084281 0 0 .040665 -4.5868 6.3703)" d="m132.73 75.747h3.9062v22.786h-3.9062z" filter="url(#a)"/>
<path transform="matrix(.084281 0 0 .040665 -4.3961 6.3703)" d="m122.3 75.747h3.9062v22.786h-3.9062z" filter="url(#a)"/>
<path transform="matrix(.084281 0 0 .040665 -4.2046 6.3703)" d="m111.86 75.747h3.9062v22.786h-3.9062z" filter="url(#a)"/>
<path transform="matrix(.084281 0 0 .040665 -4.0139 6.3703)" d="m101.43 75.747h3.9062v22.786h-3.9062z" filter="url(#a)"/>
<path transform="matrix(.084281 0 0 .040665 -3.8225 6.3703)" d="m90.991 75.747h3.9062v22.786h-3.9062z" filter="url(#a)"/>
<path transform="matrix(.084281 0 0 .040665 -4.7783 6.3703)" d="m143.17 75.747h3.9062v22.786h-3.9062z" filter="url(#a)"/>
<path transform="matrix(.084281 0 0 .040665 -4.2806 6.3703)" d="m153.6 75.747h3.9062v22.786h-3.9062z" filter="url(#b)"/>
<path transform="matrix(.084281 0 0 .040665 -10.476 6.3703)" d="m153.6 75.747h3.9062v22.786h-3.9062z" filter="url(#c)"/>
</g>
</g>
<path d="m27.448 26.454h2.7367c0.01742 0 0.02022 0.01954 0.03142 0.0348l0.56803 0.7742c0.01125 0.01533-0.01401 0.0348-0.03142 0.0348h-3.7947c-0.01742 0-0.03801-0.01689-0.03142-0.0348l0.48995-0.7742 0.03142-0.0348z" fill="#ccc"/>
<g transform="matrix(3.0141 0 0 3.0141 -93.914 -28.623)" fill="#55d400" style="font-variant-caps:normal;font-variant-ligatures:normal;font-variant-numeric:normal;shape-inside:url(#rect3828);white-space:pre" aria-label="✓">
<path d="m40.962 20.48q0.08062 0 0.12196 0.13229 0.08268 0.24805 0.11782 0.24805 0.02687 0 0.05581-0.04134 0.58084-0.93018 1.0749-1.5048 0.12816-0.14883 0.40721-0.14883 0.06614 0 0.08888 0.0124t0.02274 0.03101q0 0.02894-0.06821 0.11369-0.79788 0.95911-1.48 2.0257-0.04754 0.07441-0.1943 0.07441-0.14883 0-0.1757-0.0124-0.07028-0.03101-0.16536-0.31626-0.10749-0.31626-0.10749-0.39687 0-0.08682 0.14469-0.16743 0.08888-0.04961 0.1571-0.04961z" fill="#55d400"/>
</g>
</g>
</svg>
