<?xml version="1.0" encoding="UTF-8"?>
<svg width="48px" height="38px" version="1.0" viewBox="0 0 64.568441 50.186607" xmlns="http://www.w3.org/2000/svg" xmlns:cc="http://creativecommons.org/ns#" xmlns:dc="http://purl.org/dc/elements/1.1/" xmlns:rdf="http://www.w3.org/1999/02/22-rdf-syntax-ns#">
<metadata>
<rdf:RDF>
<cc:Work rdf:about="">
<dc:format>image/svg+xml</dc:format>
<dc:type rdf:resource="http://purl.org/dc/dcmitype/StillImage"/>
<dc:title/>
</cc:Work>
</rdf:RDF>
</metadata>
<g transform="translate(30.816 -49.767)">
<path d="m15.915 64.479c-0.03416-0.05122-9.8686-0.01707-21.295 0.05122l-20.787 0.11956-0.92235 1.2298-0.92234 1.2298v16.363l1.0419 0.90526 1.0419 0.88819h41.813l-0.03416-1.486c0-0.83694-0.0077-4.9302 0.11404-9.7981-0.04534-2.9387 8.13e-4 -6.3945-0.0496-9.5027z" fill="#4d4d4d"/>
<rect transform="matrix(.87198 0 0 .87198 38.399 63.574)" x="-70.181" y="8.6319" width="8.529" height="8.529" ry="1.6936" fill="#55d400" style="paint-order:normal"/>
<path d="m30.574 67.673-0.37577-0.37577-14.723 0.11956c-7.3462-0.01873-5.9297 0.34381-5.9297 1.2491 0 0.92234 6.7152 0.71518 13.308 0.71518h6.0977l-0.05124 5.4316-0.05125 5.4487-3.0916 0.10248c-1.708 0.06829-4.3897 0.11956-5.9611 0.11956-2.3742 0-4.4056-0.02647-4.6276 0.1956-0.35869 0.35869-0.57467 1.1549-0.1989 1.4965 0.29037 0.25621 2.7427 0.18678 8.6355 0.18678 6.4735 0 6.576 0 6.9005-0.35869 0.30745-0.34161 0.32453-0.75154 0.37577-7.1567l0.06832-6.798z" fill="#4d4d4d"/>
<path d="m25.962 71.26h-1.1956v2.2205h2.3913v-2.2205z" fill="#4d4d4d"/>
<path d="m25.962 76.214h-1.1956v2.3913h2.3913v-2.3913z" fill="#4d4d4d"/>
</g>
</svg>
