<?xml version="1.0" encoding="UTF-8"?>
<svg width="22.778mm" height="17.705mm" version="1.0" viewBox="0 0 64.568441 50.186607" xmlns="http://www.w3.org/2000/svg" xmlns:cc="http://creativecommons.org/ns#" xmlns:dc="http://purl.org/dc/elements/1.1/" xmlns:rdf="http://www.w3.org/1999/02/22-rdf-syntax-ns#">
<metadata>
<rdf:RDF>
<cc:Work rdf:about="">
<dc:format>image/svg+xml</dc:format>
<dc:type rdf:resource="http://purl.org/dc/dcmitype/StillImage"/>
<dc:title/>
</cc:Work>
</rdf:RDF>
</metadata>
<g transform="matrix(8.4042 0 0 8.4042 -359.56 -328.92)" stroke-linecap="square">
<g transform="matrix(0 .019703 -.019703 0 52.927 19.858)" fill="#d7d7d7">
<path d="m1001.5 135.9c-1.2 0.5-2.6 1.5-3.2 2.2-0.7 0.9-1.3 14.3-1.8 40.2l-0.8 38.8 0.30962 19.771c2.8 3 9.3761 2.2953 11.876-0.20471 1.6-1.6 0.9143-20.766 1.4143-37.266 0.4-10.4 0.7-26 0.7-34.7v-15.7h62v33.5c0 32.2-0.6238 51.332 1.2762 53.232 2.5 2.5 8.2713 2.4191 10.971 0.0191 2-1.7 0.6525-20.252 0.9525-57.652l0.3-38.3-2.4-1.9c-2.2-1.8-4.4-1.9-33-1.9-16.8 0-34.2-0.2-38.6-0.5s-8.9-0.1-10 0.4z"/>
<path d="m1018.2 166.7 0.3 6.8 7.3 0.3 7.2 0.3v-14.1h-15.1z"/>
<path d="m1048.7 160.7c-0.4 0.3-0.7 3.3-0.7 6.5v5.8h15v-13h-6.8c-3.8 0-7.2 0.3-7.5 0.7z"/>
<path d="m1187.5 221.6c-25.9 5.6-44.3 26.7-50.5 57.8-3.6 17.9-4.3 34.3-3.5 88.1 0.8 65.2-0.4 79.2-8.6 94.6-10 18.7-33.3 24.5-53.9 13.3-6.6-3.6-11.6-9.1-15.1-17-5.5-12.1-6.1-18.4-6.6-69.4-0.3-25.5-0.2-48.8 0.2-51.7l0.6-5.3h30.4l9.1-9.3 9.1-9.2 1.3-42.3c0.6-23.3 1-42.5 0.8-42.6-0.1-0.2-27.4-0.6-60.6-1l-60.3-0.7 0.5 15.3c0.3 8.4 0.9 28.6 1.2 44.8l0.7 29.5 10.7 7.7 10.8 7.8h22.7l-0.9 30.7c-1.4 47.7 0.7 82.3 5.9 97.8 7 20.7 21.8 35.3 41.5 40.8 24.8 7 47.1 1.9 62.3-14.2 15.9-16.9 21.7-38.3 22.1-80.6 0-11 0-38.3-0.2-60.6-0.2-25 0.1-44.2 0.8-50 2.9-24.7 11.2-40.7 25.2-48.5 4.9-2.7 6.1-2.9 15.8-2.9s10.9 0.2 15.8 2.9c15 8.3 21.8 26 23.8 62.1l0.7 11.5h-4.6c-4.5 0-4.7 0.1-8.2 5.5l-3.5 5.5v58.9l6.3 0.3 6.2 0.3 0.5 14 0.5 14 14.3 0.3c8.7 0.1 15-0.2 16.2-0.8 1.8-1 2-2.1 2-14v-13h11.2l-0.7-30.3-0.7-30.2-3.4-5.3c-3.3-5-3.6-5.2-7.9-5.2-2.9 0-4.5-0.4-4.5-1.3 0-4.5-2.2-29.4-3.1-34.7-4.5-27.1-14.5-46-29.6-55.6-11.8-7.6-29.3-10.8-42.8-7.8zm69.3 170 5.2 0.7v19.7h-19v-9.8c0-5.4 0.3-10.2 0.7-10.5 0.8-0.9 6.2-0.9 13.1-0.1z"/>
</g>
</g>
</svg>
